<mxfile host="app.diagrams.net" modified="2023-02-08T09:53:32.516Z" agent="5.0 (Windows NT 10.0; Win64; x64) AppleWebKit/537.36 (KHTML, like Gecko) Chrome/109.0.0.0 Safari/537.36" etag="dNCezbqBM3gJFMgw8mnM" version="20.8.13" type="github">
  <diagram name="Page-1" id="hoWLEHL2UPshJfU7Heec">
    <mxGraphModel dx="1434" dy="764" grid="1" gridSize="10" guides="1" tooltips="1" connect="1" arrows="1" fold="1" page="1" pageScale="1" pageWidth="850" pageHeight="1100" math="0" shadow="0">
      <root>
        <mxCell id="0" />
        <mxCell id="1" parent="0" />
        <mxCell id="NstA9TT07sQdtJnQdbu2-8" style="edgeStyle=orthogonalEdgeStyle;rounded=0;orthogonalLoop=1;jettySize=auto;html=1;" edge="1" parent="1" source="cU0gV8ZXpmd1MXwb-OMc-1" target="NstA9TT07sQdtJnQdbu2-7">
          <mxGeometry relative="1" as="geometry" />
        </mxCell>
        <mxCell id="NstA9TT07sQdtJnQdbu2-20" style="edgeStyle=orthogonalEdgeStyle;rounded=0;orthogonalLoop=1;jettySize=auto;html=1;entryX=-0.008;entryY=0.425;entryDx=0;entryDy=0;entryPerimeter=0;" edge="1" parent="1" source="cU0gV8ZXpmd1MXwb-OMc-1" target="NstA9TT07sQdtJnQdbu2-9">
          <mxGeometry relative="1" as="geometry" />
        </mxCell>
        <mxCell id="cU0gV8ZXpmd1MXwb-OMc-1" value="order processing clerk" style="shape=umlActor;verticalLabelPosition=bottom;verticalAlign=top;html=1;outlineConnect=0;" parent="1" vertex="1">
          <mxGeometry x="100" y="210" width="30" height="60" as="geometry" />
        </mxCell>
        <mxCell id="cU0gV8ZXpmd1MXwb-OMc-2" value="" style="rounded=0;whiteSpace=wrap;html=1;" parent="1" vertex="1">
          <mxGeometry x="130" y="10" width="580" height="60" as="geometry" />
        </mxCell>
        <mxCell id="cU0gV8ZXpmd1MXwb-OMc-3" value="GOLDENSMILE ORDER FULFILLMENT SYSTEM" style="text;strokeColor=none;fillColor=none;html=1;fontSize=24;fontStyle=1;verticalAlign=middle;align=center;" parent="1" vertex="1">
          <mxGeometry x="370" y="20" width="100" height="40" as="geometry" />
        </mxCell>
        <mxCell id="NstA9TT07sQdtJnQdbu2-7" value="order product" style="ellipse;whiteSpace=wrap;html=1;" vertex="1" parent="1">
          <mxGeometry x="280" y="200" width="120" height="80" as="geometry" />
        </mxCell>
        <mxCell id="NstA9TT07sQdtJnQdbu2-9" value="view product details" style="ellipse;whiteSpace=wrap;html=1;" vertex="1" parent="1">
          <mxGeometry x="280" y="320" width="120" height="80" as="geometry" />
        </mxCell>
        <mxCell id="NstA9TT07sQdtJnQdbu2-13" style="edgeStyle=orthogonalEdgeStyle;rounded=0;orthogonalLoop=1;jettySize=auto;html=1;entryX=0;entryY=0.5;entryDx=0;entryDy=0;" edge="1" parent="1" source="NstA9TT07sQdtJnQdbu2-11" target="NstA9TT07sQdtJnQdbu2-12">
          <mxGeometry relative="1" as="geometry" />
        </mxCell>
        <mxCell id="NstA9TT07sQdtJnQdbu2-11" value="Finance Department" style="shape=umlActor;verticalLabelPosition=bottom;verticalAlign=top;html=1;outlineConnect=0;" vertex="1" parent="1">
          <mxGeometry x="100" y="430" width="30" height="60" as="geometry" />
        </mxCell>
        <mxCell id="NstA9TT07sQdtJnQdbu2-12" value="credit check" style="ellipse;whiteSpace=wrap;html=1;" vertex="1" parent="1">
          <mxGeometry x="280" y="420" width="120" height="80" as="geometry" />
        </mxCell>
        <mxCell id="NstA9TT07sQdtJnQdbu2-16" style="edgeStyle=orthogonalEdgeStyle;rounded=0;orthogonalLoop=1;jettySize=auto;html=1;entryX=1;entryY=0.5;entryDx=0;entryDy=0;" edge="1" parent="1" source="NstA9TT07sQdtJnQdbu2-14" target="NstA9TT07sQdtJnQdbu2-15">
          <mxGeometry relative="1" as="geometry" />
        </mxCell>
        <mxCell id="NstA9TT07sQdtJnQdbu2-19" style="edgeStyle=orthogonalEdgeStyle;rounded=0;orthogonalLoop=1;jettySize=auto;html=1;entryX=1;entryY=0.5;entryDx=0;entryDy=0;" edge="1" parent="1" source="NstA9TT07sQdtJnQdbu2-14" target="NstA9TT07sQdtJnQdbu2-17">
          <mxGeometry relative="1" as="geometry" />
        </mxCell>
        <mxCell id="NstA9TT07sQdtJnQdbu2-14" value="Transport Department" style="shape=umlActor;verticalLabelPosition=bottom;verticalAlign=top;html=1;outlineConnect=0;" vertex="1" parent="1">
          <mxGeometry x="730" y="210" width="30" height="60" as="geometry" />
        </mxCell>
        <mxCell id="NstA9TT07sQdtJnQdbu2-15" value="deliver goods" style="ellipse;whiteSpace=wrap;html=1;" vertex="1" parent="1">
          <mxGeometry x="480" y="200" width="120" height="80" as="geometry" />
        </mxCell>
        <mxCell id="NstA9TT07sQdtJnQdbu2-17" value="check stock" style="ellipse;whiteSpace=wrap;html=1;" vertex="1" parent="1">
          <mxGeometry x="480" y="320" width="120" height="80" as="geometry" />
        </mxCell>
        <mxCell id="NstA9TT07sQdtJnQdbu2-25" style="edgeStyle=orthogonalEdgeStyle;rounded=0;orthogonalLoop=1;jettySize=auto;html=1;entryX=1;entryY=0.5;entryDx=0;entryDy=0;" edge="1" parent="1" source="NstA9TT07sQdtJnQdbu2-21" target="NstA9TT07sQdtJnQdbu2-24">
          <mxGeometry relative="1" as="geometry" />
        </mxCell>
        <mxCell id="NstA9TT07sQdtJnQdbu2-21" value="Inventory Department" style="shape=umlActor;verticalLabelPosition=bottom;verticalAlign=top;html=1;outlineConnect=0;" vertex="1" parent="1">
          <mxGeometry x="730" y="430" width="30" height="60" as="geometry" />
        </mxCell>
        <mxCell id="NstA9TT07sQdtJnQdbu2-24" value="replenish stock" style="ellipse;whiteSpace=wrap;html=1;" vertex="1" parent="1">
          <mxGeometry x="480" y="420" width="120" height="80" as="geometry" />
        </mxCell>
      </root>
    </mxGraphModel>
  </diagram>
</mxfile>
